/vscmnt/brussel_pixiu_data/_data_brussel/112/vsc11236/PredSimResults/SUBJ10opt3D/trackIG/worker_11.mot
version=1
nRows=7
nColumns=50
inDegrees=yes
endheader
                time	         pelvis_tilt	         pelvis_list	     pelvis_rotation	           pelvis_tx	           pelvis_ty	           pelvis_tz	       hip_flexion_r	     hip_adduction_r	      hip_rotation_r	        knee_angle_r	       ankle_angle_r	         mtp_angle_r	       hip_flexion_l	     hip_adduction_l	      hip_rotation_l	        knee_angle_l	       ankle_angle_l	         mtp_angle_l	    lumbar_extension	      lumbar_bending	     lumbar_rotation	 ercspn_r/activation	 intobl_r/activation	 extobl_r/activation	    abd_r/activation	    add_r/activation	hamstrings_r/activation	bifemsh_r/activation	glut_max_r/activation	iliopsoas_r/activation	rect_fem_r/activation	  vasti_r/activation	gastroc_r/activation	 soleus_r/activation	tib_ant_r/activation	 ercspn_l/activation	 intobl_l/activation	 extobl_l/activation	    abd_l/activation	    add_l/activation	hamstrings_l/activation	bifemsh_l/activation	glut_max_l/activation	iliopsoas_l/activation	rect_fem_l/activation	  vasti_l/activation	gastroc_l/activation	 soleus_l/activation	tib_ant_l/activation	
          0.46841874	         -6.57474887	          2.12427958	         -8.44851485	          0.74946998	          0.81247422	          0.01044912	        -17.05041790	         -1.99978076	          2.88277024	         -7.98706330	          2.61424295	         34.17041878	         34.99357203	         -0.97230608	         -7.07228368	         -8.52540533	          5.02098622	          0.32004967	         -7.53392751	         -1.92657745	          8.10783087	          0.14656350	          0.00999999	          0.00999999	          0.03516485	          0.07980554	          0.04205475	          0.25683763	          0.01545363	          0.46560021	          0.00999999	          0.00999999	          0.28734922	          0.24067625	          0.02192846	          0.12679041	          0.13157835	          0.00999999	          0.00999999	          0.26698024	          0.17303453	          0.36120232	          0.07621625	          0.08429957	          0.00999999	          0.00999999	          0.02171238	          0.01336657	          0.38328504	
          0.47778711	         -6.56250846	          2.14626246	         -8.51782272	          0.76694199	          0.81101464	          0.01036535	        -16.83463058	         -2.11827373	          2.56762391	        -10.45098900	          1.59163192	         35.62038415	         34.73235596	         -0.70448584	         -6.38964848	        -10.16526235	          4.52446997	          0.29657144	         -7.32954683	         -2.31090709	          8.33051318	          0.17474970	          0.00999999	          0.00999999	          0.03041575	          0.11913609	          0.04289659	          0.22215106	          0.01336657	          0.40271972	          0.00999999	          0.00999999	          0.24854198	          0.21768266	          0.01896696	          0.10966704	          0.11380836	          0.00999999	          0.02159428	          0.23092388	          0.14966578	          0.31242103	          0.17131406	          0.07291470	          0.00999999	          0.00999999	          0.01878007	          0.01156138	          0.48608776	
          0.48715549	         -6.54187969	          2.17476299	         -8.53706483	          0.78451320	          0.80975219	          0.01018877	        -16.38438260	         -2.23622725	          2.19432768	        -13.33760045	          0.52783422	         36.65587620	         34.33646624	         -0.44936853	         -5.77030335	        -11.58465624	          3.91701994	          0.28403823	         -7.12283252	         -2.69599789	          8.50689089	          0.19687191	          0.00999999	          0.00999999	          0.02630802	          0.10304646	          0.03710330	          0.19214899	          0.01156138	          0.35955628	          0.00999999	          0.00999999	          0.21497576	          0.18828407	          0.01640543	          0.13275940	          0.09843825	          0.00999999	          0.10437565	          0.23092384	          0.12945304	          0.27022778	          0.20496768	          0.06306738	          0.00999999	          0.00999999	          0.01624377	          0.00999999	          0.60465806	
          0.49652386	         -6.51386532	          2.18578529	         -8.50492115	          0.80196519	          0.80885284	          0.00990745	        -15.64067765	         -2.33371229	          1.77254112	        -16.70961998	         -0.60682482	         37.11318255	         33.93665330	         -0.20234095	         -5.28028438	        -12.97432977	          3.22840802	          0.26018069	         -6.94193839	         -3.05511925	          8.63432117	          0.23390098	          0.00999999	          0.00999999	          0.02275506	          0.08912977	          0.03209241	          0.16619878	          0.00999999	          0.31099729	          0.00999999	          0.00999999	          0.18594274	          0.16285583	          0.01418983	          0.14249983	          0.08514391	          0.00999999	          0.15031904	          0.27627201	          0.11197008	          0.23373283	          0.22537408	          0.05454997	          0.00999999	          0.01391469	          0.01405001	          0.00999999	          0.65316510	
          0.50589224	         -6.47880424	          2.18775984	         -8.42519996	          0.81916908	          0.80843238	          0.00953903	        -14.57370141	         -2.42597824	          1.30964158	        -20.55650119	         -1.93499006	         36.96702172	         33.60828652	          0.03645771	         -4.90386408	        -14.51291999	          2.76953398	          0.23347238	         -6.79615205	         -3.39872273	          8.71214325	          0.27052313	          0.00999999	          0.00999999	          0.01968193	          0.16310938	          0.03032914	          0.14375322	          0.00999999	          0.26899632	          0.00999999	          0.00999999	          0.16083070	          0.14086174	          0.01227346	          0.14460899	          0.07364501	          0.00999999	          0.19132927	          0.31656078	          0.09684823	          0.20216662	          0.23226914	          0.04718286	          0.00999999	          0.06776366	          0.01215252	          0.00999999	          0.67638793	
          0.51526061	         -6.43988695	          2.17888740	         -8.29841226	          0.83604703	          0.80861588	          0.00911500	        -13.17312779	         -2.51461910	          0.80138699	        -24.81104609	         -3.61782783	         36.19526729	         33.29143495	          0.26198478	         -4.63894978	        -16.08919938	          2.61926353	          0.20489526	         -6.68770938	         -3.72556850	          8.74028890	          0.28447858	          0.00999999	          0.00999999	          0.01702383	          0.24372300	          0.02852202	          0.12433898	          0.00999999	          0.23266769	          0.00999999	          0.00999999	          0.13911011	          0.12183800	          0.01061590	          0.13981602	          0.06369907	          0.00999999	          0.21422349	          0.34029167	          0.08405851	          0.17486350	          0.22311589	          0.04081070	          0.00999999	          0.12036905	          0.01051129	          0.00999999	          0.66192865	
          0.52462899	         -6.40078568	          2.15638621	         -8.12530266	          0.85255286	          0.80946542	          0.00866277	        -11.45766164	         -2.60380069	          0.25387877	        -29.34551029	         -5.79400147	         34.76971575	         32.90545379	          0.47984873	         -4.43984523	        -17.55441146	          2.81692553	          0.18273561	         -6.61682144	         -4.03327031	          8.71977926	          0.29005446	          0.00999999	          0.00999999	          0.01472472	          0.27769920	          0.02467005	          0.10754669	          0.00999999	          0.20124533	          0.00999999	          0.00999999	          0.12032293	          0.10538347	          0.00999999	          0.12109292	          0.05509635	          0.00999999	          0.22955779	          0.35775990	          0.08198320	          0.15124775	          0.19418152	          0.03529911	          0.00999999	          0.14639139	          0.00999999	          0.00999999	          0.57262816	
